<?xml version="1.0" standalone="no"?>
<!DOCTYPE svg PUBLIC "-//W3C//DTD SVG 20010904//EN"
 "http://www.w3.org/TR/2001/REC-SVG-20010904/DTD/svg10.dtd">
<svg version="1.0" xmlns="http://www.w3.org/2000/svg"
 width="1016.000000pt" height="1016.000000pt" viewBox="0 0 1016.000000 1016.000000"
 preserveAspectRatio="xMidYMid meet">
<metadata>
Created by potrace 1.14, written by Peter Selinger 2001-2017
</metadata>
<g transform="translate(0.000000,1016.000000) scale(0.100000,-0.100000)"
fill="#000000" stroke="none">
<path d="M6019 8412 c-8 -1 -25 -22 -37 -45 -12 -23 -37 -69 -55 -102 -19 -33
-55 -96 -80 -140 -25 -44 -59 -105 -77 -135 -17 -30 -36 -67 -43 -82 -6 -16
-15 -28 -19 -28 -4 0 -8 -4 -8 -10 0 -9 -62 -121 -236 -427 -35 -61 -64 -116
-64 -122 0 -6 -4 -11 -8 -11 -4 0 -13 -12 -19 -27 -7 -16 -28 -55 -47 -88 -19
-33 -50 -87 -67 -120 -17 -33 -34 -62 -38 -65 -3 -3 -14 -21 -23 -40 -10 -19
-31 -60 -49 -90 -17 -30 -41 -73 -54 -95 -12 -22 -32 -58 -45 -80 -19 -34 -48
-85 -130 -233 -9 -15 -42 -74 -75 -132 -85 -152 -95 -170 -123 -220 -14 -25
-54 -97 -90 -160 -36 -63 -73 -128 -82 -145 -56 -100 -97 -172 -107 -190 -7
-11 -17 -30 -22 -42 -6 -12 -21 -39 -34 -60 -13 -21 -39 -67 -59 -103 -43 -80
-63 -116 -196 -350 -57 -102 -120 -213 -138 -247 -19 -34 -47 -85 -64 -113
-16 -28 -30 -55 -30 -60 0 -4 -3 -10 -7 -12 -5 -1 -17 -21 -28 -43 -11 -22
-38 -71 -61 -110 -22 -38 -44 -77 -48 -85 -4 -8 -12 -24 -19 -35 -7 -11 -30
-52 -51 -90 -56 -99 -73 -130 -96 -170 -10 -19 -36 -65 -56 -102 -20 -37 -45
-80 -56 -95 -10 -14 -18 -29 -18 -32 0 -3 168 -6 374 -6 l374 0 35 68 c20 37
54 101 76 142 23 41 51 95 63 120 13 25 25 47 28 50 3 3 18 30 33 60 16 30 43
82 60 115 17 33 33 62 36 65 4 3 17 28 31 55 14 28 50 97 81 155 31 58 82 152
113 210 31 58 71 134 89 170 18 36 35 67 38 70 4 3 27 46 53 95 78 153 141
270 146 275 3 3 19 32 36 65 37 72 113 215 162 305 71 130 112 206 142 265 63
120 102 194 238 445 70 129 170 316 218 410 16 30 31 57 34 60 9 9 34 65 32
73 -1 4 2 7 6 7 5 0 17 19 28 43 10 23 21 44 24 47 3 3 18 30 34 60 15 30 45
87 66 125 21 39 59 111 85 160 27 50 68 126 92 170 23 44 60 114 80 155 21 41
41 77 44 80 4 3 23 39 44 80 21 41 41 77 46 78 5 2 9 10 9 17 0 7 20 49 45 93
25 44 45 85 45 91 0 6 5 11 10 11 6 0 10 9 10 20 0 11 5 20 12 20 6 0 8 3 4 7
-6 6 -584 11 -617 5z"/>
<path d="M3315 8172 c-27 -20 -54 -42 -58 -49 -4 -7 -12 -13 -16 -13 -5 0 -22
-11 -37 -24 -16 -14 -92 -75 -169 -135 -77 -61 -144 -114 -150 -118 -5 -5 -53
-42 -105 -83 -52 -41 -100 -79 -107 -85 -17 -14 -33 -26 -74 -57 -19 -14 -46
-35 -60 -47 -22 -20 -260 -207 -322 -255 -15 -11 -40 -31 -55 -44 -29 -25 -29
-24 -87 -67 -22 -17 -42 -32 -45 -35 -19 -20 -212 -170 -220 -170 -5 0 -13 -6
-17 -13 -4 -7 -26 -26 -48 -42 -22 -17 -42 -33 -45 -36 -3 -4 -32 -28 -65 -53
-58 -45 -96 -75 -135 -106 -10 -8 -53 -42 -95 -75 -43 -33 -105 -82 -140 -110
-35 -27 -76 -60 -92 -72 -15 -12 -45 -37 -67 -55 l-39 -34 -1 -327 c0 -180 2
-335 6 -345 4 -9 7 -12 7 -7 1 6 4 5 9 -1 4 -6 109 -92 233 -190 210 -166 244
-193 308 -241 13 -10 31 -26 39 -35 9 -10 20 -18 24 -18 5 0 21 -11 36 -24 59
-53 75 -66 81 -66 4 0 24 -16 44 -35 20 -19 40 -35 43 -35 3 0 29 -19 57 -42
29 -24 59 -48 67 -55 85 -67 136 -109 138 -115 2 -4 8 -8 13 -8 9 0 44 -27 81
-62 10 -10 21 -18 24 -18 3 0 11 -6 18 -12 7 -7 28 -24 46 -38 18 -14 81 -63
140 -110 117 -93 124 -98 285 -224 61 -48 117 -93 126 -100 10 -8 48 -38 85
-67 38 -30 74 -58 80 -64 6 -5 26 -21 44 -35 100 -75 195 -153 198 -161 2 -5
8 -9 14 -9 5 0 16 -7 25 -15 8 -8 18 -13 22 -11 4 3 7 156 7 341 l-1 336 -32
27 c-63 54 -73 62 -83 62 -6 0 -10 3 -10 8 0 4 -17 18 -38 32 -20 14 -41 30
-47 36 -5 6 -39 33 -75 60 -36 27 -66 52 -68 57 -2 4 -10 7 -18 7 -8 0 -14 3
-14 8 0 4 -16 18 -35 31 -19 13 -45 32 -57 43 -13 10 -33 28 -46 39 -12 10
-27 19 -32 19 -6 0 -10 4 -10 8 0 4 -12 15 -27 24 -16 9 -39 27 -53 40 -14 13
-48 39 -75 58 -28 19 -54 39 -60 45 -5 6 -28 24 -50 40 -22 16 -45 34 -51 40
-6 5 -21 17 -34 25 -12 8 -34 25 -48 37 -15 12 -83 65 -152 117 -69 53 -132
102 -140 109 -9 6 -33 25 -55 42 -49 36 -53 39 -90 68 -16 13 -104 81 -195
150 -217 167 -222 170 -234 182 -6 6 -21 18 -34 27 l-23 16 43 33 c24 19 48
38 54 44 6 5 23 19 38 30 27 19 134 102 166 128 8 7 51 40 95 74 44 33 91 70
104 82 13 11 27 21 30 21 3 0 22 14 41 30 44 38 40 34 136 107 45 34 89 69 98
78 9 9 16 13 16 8 0 -4 4 -3 8 3 4 6 63 55 132 108 171 133 192 149 206 164 7
6 16 12 21 12 4 0 22 12 38 28 17 15 52 43 78 62 26 19 65 50 85 67 20 18 40
33 44 33 4 0 13 6 20 13 7 7 82 66 165 131 84 65 155 122 159 127 3 5 10 7 15
4 5 -4 9 -2 9 4 0 5 19 23 43 41 l42 31 1 344 c0 190 0 345 0 345 -1 0 -23
-17 -51 -38z"/>
<path d="M6859 7934 c-1 -394 0 -406 19 -424 9 -8 42 -34 72 -57 30 -24 60
-47 66 -51 5 -5 55 -43 111 -86 55 -42 106 -83 113 -91 7 -8 18 -15 25 -15 8
0 15 -3 17 -7 3 -8 34 -34 99 -84 19 -15 100 -78 180 -140 81 -63 211 -163
290 -224 79 -60 151 -118 161 -127 10 -10 23 -18 28 -18 6 0 10 -4 10 -10 0
-5 5 -10 11 -10 7 0 19 -8 28 -18 9 -9 43 -37 76 -62 33 -24 66 -50 75 -57 8
-7 62 -49 120 -93 58 -44 119 -92 135 -105 17 -13 39 -31 50 -39 11 -9 52 -41
90 -71 39 -30 73 -55 77 -55 4 0 12 -10 19 -21 9 -17 8 -23 -2 -30 -16 -9 -44
-30 -98 -72 -20 -15 -47 -36 -61 -46 -23 -17 -331 -254 -390 -300 -14 -11 -43
-33 -65 -50 -22 -17 -44 -34 -50 -38 -193 -150 -289 -224 -375 -289 -58 -43
-114 -87 -125 -96 -11 -9 -67 -53 -125 -97 -58 -45 -116 -89 -130 -100 -14
-11 -35 -28 -47 -38 -13 -10 -44 -34 -70 -53 -27 -19 -53 -39 -59 -45 -6 -5
-23 -19 -38 -30 -65 -47 -222 -170 -228 -179 -9 -14 -10 -686 0 -686 4 0 18 9
30 20 12 11 26 20 32 20 5 0 10 4 10 9 0 5 21 25 48 44 99 73 497 390 500 398
2 5 10 9 17 9 7 0 15 3 17 8 2 4 32 30 67 57 36 28 73 57 82 65 10 8 24 20 31
25 13 10 33 26 173 136 39 30 106 84 151 119 45 36 94 75 110 87 16 12 40 31
54 43 25 20 243 192 349 273 29 23 58 47 65 52 9 8 101 81 161 128 25 19 202
160 220 175 11 10 31 24 45 33 14 10 34 25 45 36 11 10 35 29 52 41 23 16 32
30 29 45 -1 12 0 36 4 54 5 18 4 33 0 33 -8 0 -5 44 5 59 3 6 2 11 -4 11 -7 0
-7 8 -1 24 5 13 6 26 4 29 -8 8 -9 151 -1 164 4 6 4 14 0 16 -5 3 -7 64 -6
135 1 143 2 142 -77 193 -14 9 -35 25 -46 35 -12 11 -36 30 -54 44 -18 14 -38
30 -44 35 -6 6 -31 26 -56 45 -25 19 -52 40 -60 47 -40 32 -140 111 -170 133
-18 14 -40 32 -50 40 -10 8 -32 26 -50 40 -29 22 -269 211 -311 244 -8 7 -58
46 -110 87 -118 93 -116 91 -165 131 -22 18 -56 44 -74 58 -18 14 -47 36 -64
50 -17 14 -38 30 -46 37 -39 31 -228 180 -345 272 -71 56 -148 116 -169 134
-21 18 -46 36 -55 41 -9 5 -20 15 -26 21 -5 6 -35 30 -65 53 -30 23 -68 53
-84 67 -16 14 -32 25 -35 25 -3 0 -19 13 -36 28 -16 15 -47 40 -67 56 l-38 28
-1 -278z"/>
</g>
</svg>
